<?xml version="1.0" encoding="UTF-8" standalone="no"?>
<svg width="300px" height="300px" viewBox="0 0 300 300" version="1.1" xmlns="http://www.w3.org/2000/svg" xmlns:xlink="http://www.w3.org/1999/xlink">
    <!-- Generator: Sketch 39.1 (31720) - http://www.bohemiancoding.com/sketch -->
    <title>what-we-do</title>
    <desc>Created with Sketch.</desc>
    <defs>
        <path d="M-8.27322075,57.703134 C-8.27322075,48.9941996 -3.76431929,46.1519989 -3.76431929,46.1519989 L151.435542,46.1519989 C151.435542,46.1519989 156.491478,47.8585217 156.491478,57.7031336 C156.491478,67.5477456 151.435542,69.2542684 151.435542,69.2542684 L-3.76431929,69.2542684 C-3.76431929,69.2542684 -8.27322075,66.4120685 -8.27322075,57.703134 Z" id="path-1"></path>
        <mask id="mask-2" maskContentUnits="userSpaceOnUse" maskUnits="objectBoundingBox" x="0" y="0" width="164.764699" height="23.1022695" fill="white">
            <use xlink:href="#path-1"></use>
        </mask>
        <filter x="-50%" y="-50%" width="200%" height="200%" filterUnits="objectBoundingBox" id="filter-3">
            <feGaussianBlur stdDeviation="4.66050092" in="SourceGraphic"></feGaussianBlur>
        </filter>
    </defs>
    <g id="Page-1" stroke="none" stroke-width="1" fill="none" fill-rule="evenodd">
        <g id="what-we-do">
            <rect id="Rectangle-3" x="0" y="0" width="300" height="300"></rect>
            <g id="Group" transform="translate(66.000000, 94.000000)" stroke="#000000">
                <g id="chalk" transform="translate(0.284832, 0.902734)">
                    <use id="Rectangle-1" mask="url(#mask-2)" stroke-width="2" fill="#FFFFFF" transform="translate(74.109129, 57.703134) rotate(145.000000) translate(-74.109129, -57.703134) " xlink:href="#path-1"></use>
                    <path d="M5.17451529,92.3439038 C5.17451529,92.3439038 12.4646453,94.0221727 15.4405818,98.404086 C19.4720107,104.340158 18.7151685,110.097266 18.7151685,110.097266" id="Path-1"></path>
                    <polygon id="shadow" stroke-opacity="0.595250226" filter="url(#filter-3)" points="17.2151683 111.497266 178.715168 111.372266 178.715168 110.997266"></polygon>
                </g>
            </g>
        </g>
    </g>
</svg>